<svg width="148" height="35" viewBox="0 0 148 35" fill="none" xmlns="http://www.w3.org/2000/svg">
<path fill-rule="evenodd" clip-rule="evenodd" d="M5.44519 0.710938H9.28294L0 9.99387V6.15613C0 3.14883 2.43789 0.710938 5.44519 0.710938ZM0 23.5433V14.9925L9.426 5.56655L23.5644 19.7049L27.9826 15.2867L33.5787 20.8827V28.8444C33.5787 29.0339 33.569 29.2212 33.5501 29.4057L27.9822 23.8378L23.564 28.2561L9.42559 14.1177L0 23.5433ZM0 28.5419V28.8444C0 31.8517 2.4379 34.2896 5.44519 34.2896H28.1335C29.6007 34.2896 30.9323 33.7093 31.9115 32.7658L27.9822 28.8365L23.564 33.2547L9.42559 19.1164L0 28.5419ZM33.5787 6.15613V15.884L27.9826 10.288L23.5644 14.7063L9.56907 0.710938H28.1335C31.1408 0.710938 33.5787 3.14883 33.5787 6.15613Z" fill="white"/>
<path d="M51.6311 27.4115C49.7071 27.4115 48.0009 27.0031 46.5126 26.1863C45.0424 25.3695 43.8989 24.217 43.0821 22.7286C42.2653 21.2221 41.8569 19.4796 41.8569 17.5012C41.8569 15.541 42.2744 13.8166 43.1093 12.3283C43.9624 10.8218 45.1331 9.66015 46.6215 8.84337C48.128 8.00844 49.8341 7.59097 51.74 7.59097C53.5732 7.59097 55.2158 7.96306 56.6679 8.70724L56.2867 12.0288C55.5062 11.6839 54.753 11.4208 54.0269 11.2393C53.3191 11.0396 52.5477 10.9398 51.7127 10.9398C49.7706 10.9398 48.2732 11.5387 47.2204 12.7367C46.1859 13.9346 45.6686 15.5228 45.6686 17.5012C45.6686 19.4796 46.1768 21.0678 47.1932 22.2658C48.2278 23.4637 49.7071 24.0627 51.6311 24.0627C52.4841 24.0627 53.2646 23.9719 53.9725 23.7904C54.6985 23.6089 55.4699 23.3367 56.2867 22.9736L56.6679 26.2952C55.0887 27.0394 53.4098 27.4115 51.6311 27.4115Z" fill="white"/>
<path d="M64.9884 27.3026C63.5545 27.3026 62.3111 26.9849 61.2584 26.3497C60.2057 25.7144 59.398 24.8613 58.8353 23.7904C58.2726 22.7195 57.9913 21.5397 57.9913 20.251C57.9913 18.9623 58.2726 17.7735 58.8353 16.6844C59.398 15.5954 60.2057 14.7332 61.2584 14.098C62.3111 13.4627 63.5545 13.1451 64.9884 13.1451C66.4223 13.1451 67.6656 13.4627 68.7183 14.098C69.771 14.7332 70.5788 15.5954 71.1414 16.6844C71.7041 17.7735 71.9854 18.9623 71.9854 20.251C71.9854 21.5397 71.7041 22.7195 71.1414 23.7904C70.5788 24.8613 69.771 25.7144 68.7183 26.3497C67.6656 26.9849 66.4223 27.3026 64.9884 27.3026ZM64.9884 24.5255C66.0955 24.5255 66.9577 24.1353 67.5748 23.3548C68.2101 22.5743 68.5277 21.5397 68.5277 20.251C68.5277 18.9442 68.2101 17.9005 67.5748 17.1201C66.9577 16.3214 66.0955 15.9221 64.9884 15.9221C63.8812 15.9221 63.0099 16.3214 62.3747 17.1201C61.7575 17.9005 61.449 18.9442 61.449 20.251C61.449 21.5397 61.7575 22.5743 62.3747 23.3548C63.0099 24.1353 63.8812 24.5255 64.9884 24.5255Z" fill="white"/>
<path d="M87.5348 27.3026C86.1009 27.3026 84.8576 26.9849 83.8049 26.3497C82.7522 25.7144 81.9445 24.8613 81.3818 23.7904C80.8191 22.7195 80.5378 21.5397 80.5378 20.251C80.5378 18.9623 80.8191 17.7735 81.3818 16.6844C81.9445 15.5954 82.7522 14.7332 83.8049 14.098C84.8576 13.4627 86.1009 13.1451 87.5348 13.1451C88.9687 13.1451 90.2121 13.4627 91.2648 14.098C92.3175 14.7332 93.1252 15.5954 93.6879 16.6844C94.2506 17.7735 94.5319 18.9623 94.5319 20.251C94.5319 21.5397 94.2506 22.7195 93.6879 23.7904C93.1252 24.8613 92.3175 25.7144 91.2648 26.3497C90.2121 26.9849 88.9687 27.3026 87.5348 27.3026ZM87.5348 24.5255C88.642 24.5255 89.5042 24.1353 90.1213 23.3548C90.7566 22.5743 91.0742 21.5397 91.0742 20.251C91.0742 18.9442 90.7566 17.9005 90.1213 17.1201C89.5042 16.3214 88.642 15.9221 87.5348 15.9221C86.4277 15.9221 85.5564 16.3214 84.9212 17.1201C84.304 17.9005 83.9955 18.9442 83.9955 20.251C83.9955 21.5397 84.304 22.5743 84.9212 23.3548C85.5564 24.1353 86.4277 24.5255 87.5348 24.5255Z" fill="white"/>
<path d="M96.8819 13.4173H100.04L100.122 14.8603C100.521 14.4065 101.029 14.0072 101.646 13.6624C102.282 13.3175 102.944 13.1451 103.634 13.1451C103.852 13.1451 104.051 13.1632 104.233 13.1995L103.988 16.5211C103.643 16.4303 103.253 16.385 102.817 16.385C102.254 16.385 101.737 16.5211 101.265 16.7933C100.793 17.0475 100.458 17.3651 100.258 17.7463V27.0303H96.8819V13.4173Z" fill="white"/>
<path d="M108.649 27.3026C107.524 27.3026 106.58 26.9396 105.818 26.2135C105.074 25.4694 104.702 24.4711 104.702 23.2187C104.702 22.0389 105.128 21.095 105.981 20.3872C106.834 19.6611 107.842 19.1529 109.003 18.8625C110.165 18.554 111.281 18.3815 112.352 18.3452C112.316 17.5466 112.107 16.9749 111.726 16.63C111.363 16.2851 110.755 16.1127 109.902 16.1127C109.303 16.1127 108.713 16.1944 108.132 16.3577C107.569 16.5211 106.916 16.7843 106.172 17.1473L105.872 14.3975C107.524 13.5988 109.176 13.1995 110.827 13.1995C112.425 13.1995 113.641 13.6351 114.476 14.5064C115.329 15.3776 115.755 16.7661 115.755 18.6719V22.3474C115.755 23.0372 115.783 23.5363 115.837 23.8449C115.91 24.1353 116.019 24.3259 116.164 24.4166C116.327 24.4892 116.59 24.5255 116.953 24.5255H117.389L117.089 27.3026H115.864C115.12 27.3026 114.494 27.1664 113.986 26.8942C113.477 26.6038 113.087 26.2135 112.815 25.7235C112.379 26.2135 111.78 26.6038 111.018 26.8942C110.274 27.1664 109.484 27.3026 108.649 27.3026ZM110.065 24.7161C110.41 24.7161 110.8 24.6344 111.236 24.4711C111.672 24.2896 112.053 24.0445 112.379 23.736V20.6322C111.29 20.6867 110.328 20.9226 109.493 21.3401C108.659 21.7575 108.241 22.3384 108.241 23.0825C108.241 23.6452 108.386 24.0627 108.677 24.3349C108.967 24.589 109.43 24.7161 110.065 24.7161Z" fill="white"/>
<path d="M131.684 6.61084V27.0303H128.498L128.444 26.1591C127.918 26.5402 127.364 26.8306 126.783 27.0303C126.221 27.2118 125.549 27.3026 124.768 27.3026C123.443 27.3026 122.3 26.9849 121.338 26.3497C120.394 25.7144 119.677 24.8613 119.187 23.7904C118.697 22.7195 118.452 21.5397 118.452 20.251C118.452 18.9623 118.697 17.7826 119.187 16.7117C119.677 15.6408 120.394 14.7877 121.338 14.1524C122.3 13.5172 123.443 13.1995 124.768 13.1995C126.093 13.1995 127.273 13.5625 128.308 14.2886V6.61084H131.684ZM125.259 24.5255C126.329 24.5255 127.128 24.1444 127.654 23.382C128.199 22.6197 128.471 21.576 128.471 20.251C128.471 18.926 128.199 17.8824 127.654 17.1201C127.128 16.3577 126.329 15.9766 125.259 15.9766C124.206 15.9766 123.38 16.3668 122.781 17.1473C122.2 17.9278 121.91 18.9623 121.91 20.251C121.91 21.5397 122.2 22.5743 122.781 23.3548C123.38 24.1353 124.206 24.5255 125.259 24.5255Z" fill="white"/>
<path d="M141.003 27.3026C139.569 27.3026 138.326 26.9849 137.273 26.3497C136.22 25.7144 135.413 24.8613 134.85 23.7904C134.287 22.7195 134.006 21.5397 134.006 20.251C134.006 18.9623 134.287 17.7735 134.85 16.6844C135.413 15.5954 136.22 14.7332 137.273 14.098C138.326 13.4627 139.569 13.1451 141.003 13.1451C142.437 13.1451 143.68 13.4627 144.733 14.098C145.786 14.7332 146.593 15.5954 147.156 16.6844C147.719 17.7735 148 18.9623 148 20.251C148 21.5397 147.719 22.7195 147.156 23.7904C146.593 24.8613 145.786 25.7144 144.733 26.3497C143.68 26.9849 142.437 27.3026 141.003 27.3026ZM141.003 24.5255C142.11 24.5255 142.972 24.1353 143.589 23.3548C144.225 22.5743 144.542 21.5397 144.542 20.251C144.542 18.9442 144.225 17.9005 143.589 17.1201C142.972 16.3214 142.11 15.9221 141.003 15.9221C139.896 15.9221 139.025 16.3214 138.389 17.1201C137.772 17.9005 137.464 18.9442 137.464 20.251C137.464 21.5397 137.772 22.5743 138.389 23.3548C139.025 24.1353 139.896 24.5255 141.003 24.5255Z" fill="white"/>
<rect x="74.418" y="6.15723" width="3.63013" height="20.8732" fill="white"/>
</svg>
