<svg width="148" height="35" viewBox="0 0 148 35" fill="none" xmlns="http://www.w3.org/2000/svg">
<path fill-rule="evenodd" clip-rule="evenodd" d="M6 0H9.28305L0 9.67597V6C0 2.68629 2.68629 0 6 0ZM0 23.7983V14.8862L9.42603 5.06123L23.5644 19.7981L27.9827 15.1928L33.5787 21.0257V29C33.5787 29.2965 33.5572 29.5879 33.5157 29.8729L27.9823 24.1053L23.564 28.7106L9.42561 13.9737L0 23.7983ZM5.92838e-06 29.0085C0.00460898 32.3183 2.68913 35 6 35H27.5787C29.217 35 30.702 34.3434 31.7848 33.279L27.9823 29.3155L23.564 33.9208L9.42561 19.184L5.92838e-06 29.0085ZM33.5787 6V15.8154L27.9827 9.98254L23.5644 14.5878L9.56902 0H27.5787C30.8924 0 33.5787 2.68629 33.5787 6Z" fill="#FF9B10"/>
<path d="M51.6306 27.8298C49.7066 27.8298 48.0004 27.4041 46.5121 26.5527C45.0419 25.7014 43.8984 24.5 43.0816 22.9487C42.2648 21.3784 41.8564 19.5622 41.8564 17.5C41.8564 15.4568 42.2739 13.6595 43.1088 12.1081C43.9619 10.5379 45.1326 9.32706 46.621 8.47571C48.1275 7.60544 49.8337 7.1703 51.7395 7.1703C53.5727 7.1703 55.2153 7.55814 56.6674 8.33382L56.2862 11.796C55.5058 11.4365 54.7525 11.1622 54.0265 10.973C53.3186 10.7649 52.5472 10.6608 51.7123 10.6608C49.7701 10.6608 48.2727 11.2852 47.22 12.5338C46.1854 13.7825 45.6681 15.4379 45.6681 17.5C45.6681 19.5622 46.1763 21.2176 47.1927 22.4663C48.2273 23.7149 49.7066 24.3392 51.6306 24.3392C52.4837 24.3392 53.2641 24.2446 53.972 24.0554C54.698 23.8663 55.4694 23.5825 56.2862 23.2041L56.6674 26.6663C55.0883 27.4419 53.4093 27.8298 51.6306 27.8298Z" fill="#FF9B10"/>
<path d="M64.9879 27.7162C63.554 27.7162 62.3107 27.3852 61.258 26.723C60.2052 26.0608 59.3975 25.1717 58.8348 24.0554C58.2722 22.9392 57.9908 21.7095 57.9908 20.3662C57.9908 19.023 58.2722 17.7838 58.8348 16.6487C59.3975 15.5135 60.2052 14.6149 61.258 13.9527C62.3107 13.2906 63.554 12.9595 64.9879 12.9595C66.4218 12.9595 67.6651 13.2906 68.7179 13.9527C69.7706 14.6149 70.5783 15.5135 71.141 16.6487C71.7037 17.7838 71.985 19.023 71.985 20.3662C71.985 21.7095 71.7037 22.9392 71.141 24.0554C70.5783 25.1717 69.7706 26.0608 68.7179 26.723C67.6651 27.3852 66.4218 27.7162 64.9879 27.7162ZM64.9879 24.8217C66.0951 24.8217 66.9573 24.4149 67.5744 23.6014C68.2097 22.7879 68.5273 21.7095 68.5273 20.3662C68.5273 19.0041 68.2097 17.9163 67.5744 17.1027C66.9573 16.2703 66.0951 15.8541 64.9879 15.8541C63.8807 15.8541 63.0095 16.2703 62.3742 17.1027C61.7571 17.9163 61.4485 19.0041 61.4485 20.3662C61.4485 21.7095 61.7571 22.7879 62.3742 23.6014C63.0095 24.4149 63.8807 24.8217 64.9879 24.8217Z" fill="#FF9B10"/>
<path d="M87.5345 27.7162C86.1005 27.7162 84.8572 27.3852 83.8045 26.723C82.7517 26.0608 81.944 25.1717 81.3814 24.0554C80.8187 22.9392 80.5374 21.7095 80.5374 20.3662C80.5374 19.023 80.8187 17.7838 81.3814 16.6487C81.944 15.5135 82.7517 14.6149 83.8045 13.9527C84.8572 13.2906 86.1005 12.9595 87.5345 12.9595C88.9684 12.9595 90.2117 13.2906 91.2644 13.9527C92.3172 14.6149 93.1249 15.5135 93.6875 16.6487C94.2502 17.7838 94.5315 19.023 94.5315 20.3662C94.5315 21.7095 94.2502 22.9392 93.6875 24.0554C93.1249 25.1717 92.3172 26.0608 91.2644 26.723C90.2117 27.3852 88.9684 27.7162 87.5345 27.7162ZM87.5345 24.8217C88.6416 24.8217 89.5038 24.4149 90.1209 23.6014C90.7562 22.7879 91.0738 21.7095 91.0738 20.3662C91.0738 19.0041 90.7562 17.9163 90.1209 17.1027C89.5038 16.2703 88.6416 15.8541 87.5345 15.8541C86.4273 15.8541 85.556 16.2703 84.9208 17.1027C84.3036 17.9163 83.9951 19.0041 83.9951 20.3662C83.9951 21.7095 84.3036 22.7879 84.9208 23.6014C85.556 24.4149 86.4273 24.8217 87.5345 24.8217Z" fill="#FF9B10"/>
<path d="M96.8815 13.2433H100.04L100.121 14.7473C100.521 14.2744 101.029 13.8581 101.646 13.4987C102.281 13.1392 102.944 12.9595 103.634 12.9595C103.851 12.9595 104.051 12.9784 104.233 13.0163L103.987 16.4784C103.643 16.3838 103.252 16.3365 102.817 16.3365C102.254 16.3365 101.737 16.4784 101.265 16.7622C100.793 17.0271 100.457 17.3581 100.258 17.7554V27.4325H96.8815V13.2433Z" fill="#FF9B10"/>
<path d="M108.649 27.7162C107.524 27.7162 106.58 27.3379 105.818 26.5811C105.073 25.8054 104.701 24.7649 104.701 23.4595C104.701 22.2298 105.128 21.246 105.981 20.5081C106.834 19.7514 107.841 19.2217 109.003 18.919C110.165 18.5973 111.281 18.4176 112.352 18.3798C112.315 17.5473 112.107 16.9514 111.726 16.5919C111.363 16.2325 110.755 16.0527 109.901 16.0527C109.302 16.0527 108.713 16.1379 108.132 16.3081C107.569 16.4784 106.916 16.7527 106.172 17.1311L105.872 14.2649C107.524 13.4325 109.175 13.0163 110.827 13.0163C112.424 13.0163 113.641 13.4703 114.475 14.3784C115.329 15.2865 115.755 16.7338 115.755 18.7203V22.5514C115.755 23.2703 115.782 23.7906 115.837 24.1122C115.909 24.4149 116.018 24.6135 116.163 24.7081C116.327 24.7838 116.59 24.8217 116.953 24.8217H117.389L117.089 27.7162H115.864C115.12 27.7162 114.494 27.5744 113.985 27.2906C113.477 26.9879 113.087 26.5811 112.815 26.0703C112.379 26.5811 111.78 26.9879 111.018 27.2906C110.274 27.5744 109.484 27.7162 108.649 27.7162ZM110.065 25.0203C110.41 25.0203 110.8 24.9352 111.236 24.7649C111.671 24.5757 112.052 24.3203 112.379 23.9987V20.7635C111.29 20.8203 110.328 21.0663 109.493 21.5014C108.658 21.9365 108.241 22.5419 108.241 23.3176C108.241 23.9041 108.386 24.3392 108.676 24.623C108.967 24.8879 109.43 25.0203 110.065 25.0203Z" fill="#FF9B10"/>
<path d="M131.684 6.14868V27.4325H128.498L128.444 26.5244C127.917 26.9217 127.364 27.2244 126.783 27.4325C126.22 27.6217 125.549 27.7162 124.768 27.7162C123.443 27.7162 122.3 27.3852 121.338 26.723C120.394 26.0608 119.677 25.1717 119.187 24.0554C118.697 22.9392 118.452 21.7095 118.452 20.3662C118.452 19.023 118.697 17.7933 119.187 16.6771C119.677 15.5608 120.394 14.6717 121.338 14.0095C122.3 13.3473 123.443 13.0163 124.768 13.0163C126.093 13.0163 127.273 13.3946 128.308 14.1514V6.14868H131.684ZM125.258 24.8217C126.329 24.8217 127.128 24.4244 127.654 23.6298C128.199 22.8352 128.471 21.7473 128.471 20.3662C128.471 18.9852 128.199 17.8973 127.654 17.1027C127.128 16.3081 126.329 15.9108 125.258 15.9108C124.205 15.9108 123.38 16.3176 122.781 17.1311C122.2 17.9446 121.909 19.023 121.909 20.3662C121.909 21.7095 122.2 22.7879 122.781 23.6014C123.38 24.4149 124.205 24.8217 125.258 24.8217Z" fill="#FF9B10"/>
<path d="M141.003 27.7162C139.569 27.7162 138.325 27.3852 137.273 26.723C136.22 26.0608 135.412 25.1717 134.85 24.0554C134.287 22.9392 134.006 21.7095 134.006 20.3662C134.006 19.023 134.287 17.7838 134.85 16.6487C135.412 15.5135 136.22 14.6149 137.273 13.9527C138.325 13.2906 139.569 12.9595 141.003 12.9595C142.437 12.9595 143.68 13.2906 144.733 13.9527C145.785 14.6149 146.593 15.5135 147.156 16.6487C147.718 17.7838 148 19.023 148 20.3662C148 21.7095 147.718 22.9392 147.156 24.0554C146.593 25.1717 145.785 26.0608 144.733 26.723C143.68 27.3852 142.437 27.7162 141.003 27.7162ZM141.003 24.8217C142.11 24.8217 142.972 24.4149 143.589 23.6014C144.224 22.7879 144.542 21.7095 144.542 20.3662C144.542 19.0041 144.224 17.9163 143.589 17.1027C142.972 16.2703 142.11 15.8541 141.003 15.8541C139.896 15.8541 139.024 16.2703 138.389 17.1027C137.772 17.9163 137.463 19.0041 137.463 20.3662C137.463 21.7095 137.772 22.7879 138.389 23.6014C139.024 24.4149 139.896 24.8217 141.003 24.8217Z" fill="#FF9B10"/>
<rect x="74.418" y="5.67554" width="3.63013" height="21.7568" fill="#FF9B10"/>
</svg>
