<svg width="333" height="335" viewBox="0 0 333 335" fill="none" xmlns="http://www.w3.org/2000/svg">
<path d="M40.745 123.381C39.6997 125.827 38.2522 127.764 36.4025 129.191C34.5527 130.618 32.4521 131.456 30.1006 131.705C27.7374 131.948 25.2688 131.52 22.6946 130.42C20.1205 129.32 18.1157 127.822 16.6801 125.928C15.2328 124.028 14.3907 121.905 14.1538 119.559C13.9169 117.212 14.3212 114.816 15.3665 112.37C15.9091 111.1 16.5541 109.978 17.3016 109.002C18.0374 108.022 18.7809 107.217 19.532 106.588L23.1716 108.66C22.3856 109.371 21.6496 110.158 20.9635 111.022C20.2659 111.881 19.6706 112.887 19.1778 114.04C18.4112 115.834 18.1593 117.503 18.422 119.048C18.678 120.576 19.3496 121.938 20.4369 123.132C21.5175 124.31 22.9023 125.26 24.5912 125.982C26.2801 126.704 27.927 127.057 29.532 127.04C31.1303 127.007 32.5736 126.563 33.8617 125.708C35.1431 124.837 36.1622 123.516 36.9188 121.746C37.4266 120.558 37.7589 119.426 37.9158 118.349C38.0777 117.262 38.1365 116.157 38.0921 115.036L42.1224 116.242C42.1535 117.33 42.0632 118.476 41.8515 119.68C41.6515 120.89 41.2827 122.123 40.745 123.381Z" fill="#405F59"/>
<path d="M60.7414 86.2586C59.0298 88.1264 57.0863 89.4035 54.9108 90.0902C52.7353 90.7768 50.5057 90.8382 48.2218 90.2744C45.9287 89.7021 43.7502 88.4703 41.6863 86.579C39.6225 84.6878 38.2103 82.6291 37.4498 80.4031C36.6799 78.1685 36.5422 75.9377 37.0367 73.7106C37.5313 71.4836 38.6343 69.4362 40.3459 67.5685C42.0574 65.7008 44.0009 64.4236 46.1764 63.737C48.3519 63.0504 50.5862 62.9932 52.8794 63.5656C55.1632 64.1293 57.337 65.3569 59.4009 67.2481C61.4647 69.1394 62.8816 71.2023 63.6515 73.4369C64.412 75.663 64.545 77.8895 64.0505 80.1165C63.556 82.3435 62.4529 84.3909 60.7414 86.2586ZM57.5896 83.3704C58.8476 81.9976 59.5967 80.5708 59.8369 79.0901C60.0677 77.6007 59.8648 76.1348 59.2281 74.6923C58.5914 73.2498 57.6007 71.9124 56.2559 70.6801C54.9111 69.4477 53.4925 68.5773 52 68.0686C50.5075 67.56 49.0342 67.4898 47.58 67.858C46.1164 68.2177 44.7556 69.084 43.4976 70.4568C42.2311 71.8389 41.4824 73.2746 41.2515 74.7639C41.0113 76.2447 41.2096 77.7064 41.8463 79.1489C42.483 80.5914 43.4737 81.9288 44.8185 83.1611C46.1632 84.3934 47.5819 85.2639 49.0743 85.7726C50.5668 86.2812 52.0449 86.3557 53.5084 85.996C54.9627 85.6277 56.323 84.7525 57.5896 83.3704Z" fill="#405F59"/>
<path d="M85.3603 59.371L73.119 35.7551L77.0831 33.7003L96.103 44.3006L87.744 28.1743L91.6744 26.137L103.916 49.7529L100.66 51.4404L80.4163 40.2547L89.2738 57.3425L85.3603 59.371Z" fill="#405F59"/>
<path d="M132.158 37.9726L128.719 15.818L121.209 16.9839L120.567 12.8534L139.962 9.84235L140.603 13.9729L133.075 15.1417L136.514 37.2963L132.158 37.9726Z" fill="#405F59"/>
<path d="M183.419 28.5656L172.336 26.7579L172.963 22.9137L184.046 24.7214L183.419 28.5656ZM179.826 12.1166L180.989 12.3063L169.637 33.0363L165.324 32.3328L178.964 7.60602L183.221 8.30033L188.315 36.0827L183.983 35.3762L179.826 12.1166Z" fill="#405F59"/>
<path d="M221.006 46.2632C218.653 45.0216 216.841 43.4208 215.57 41.4607C214.298 39.5007 213.635 37.3386 213.579 34.9747C213.529 32.5995 214.158 30.174 215.464 27.6983C216.771 25.2227 218.427 23.3467 220.432 22.0706C222.444 20.7833 224.628 20.1174 226.987 20.0729C229.345 20.0284 231.7 20.6269 234.052 21.8685C235.273 22.5129 236.339 23.2474 237.251 24.072C238.168 24.8854 238.909 25.6922 239.475 26.4922L237.113 29.9504C236.468 29.109 235.744 28.3111 234.939 27.5569C234.14 26.7914 233.186 26.116 232.077 25.5307C230.351 24.6202 228.708 24.2328 227.147 24.3685C225.603 24.4988 224.191 25.0571 222.912 26.0432C221.649 27.024 220.589 28.3266 219.732 29.9509C218.875 31.5752 218.389 33.1879 218.274 34.7889C218.177 36.3846 218.502 37.8592 219.248 39.2128C220.012 40.5611 221.245 41.6846 222.948 42.5833C224.09 43.1863 225.192 43.61 226.251 43.8542C227.322 44.1044 228.418 44.2532 229.539 44.3004L228.008 48.2189C226.922 48.161 225.787 47.9774 224.604 47.6681C223.415 47.37 222.215 46.9017 221.006 46.2632Z" fill="#405F59"/>
<path d="M252.284 64.9075L268.195 49.1119L262.841 43.7184L265.807 40.7734L279.635 54.7022L276.669 57.6471L271.301 52.2401L255.39 68.0358L252.284 64.9075Z" fill="#405F59"/>
<path d="M292.254 123.584C291.638 121.166 291.601 119.045 292.143 117.221C292.687 115.409 293.721 113.897 295.242 112.686C296.776 111.472 298.715 110.566 301.059 109.969L315.826 106.207L316.914 110.478L303.271 113.954C302.055 114.264 300.948 114.637 299.949 115.075C298.949 115.513 298.113 116.053 297.44 116.695C296.77 117.349 296.322 118.156 296.096 119.115C295.882 120.072 295.945 121.219 296.286 122.557C296.63 123.907 297.123 124.945 297.766 125.67C298.423 126.404 299.203 126.898 300.104 127.153C301.005 127.407 301.998 127.48 303.082 127.374C304.181 127.277 305.332 127.075 306.535 126.769L320.179 123.293L321.267 127.565L306.5 131.327C304.156 131.924 302.02 132.056 300.092 131.724C298.177 131.388 296.545 130.549 295.196 129.207C293.851 127.876 292.87 126.002 292.254 123.584Z" fill="#405F59"/>
<path d="M299.616 166.52C299.691 165.433 299.863 164.334 300.131 163.223C300.399 162.111 300.705 161.085 301.05 160.144C301.406 159.217 301.75 158.466 302.082 157.892L306.707 158.766C306.259 159.548 305.818 160.406 305.385 161.341C304.964 162.277 304.598 163.26 304.285 164.293C303.983 165.338 303.795 166.398 303.721 167.472C303.62 168.913 303.812 170.081 304.296 170.978C304.791 171.889 305.607 172.384 306.745 172.463C307.616 172.524 308.34 172.339 308.916 171.909C309.492 171.48 310.015 170.805 310.485 169.885C310.968 168.967 311.5 167.797 312.082 166.378C312.649 164.982 313.276 163.724 313.963 162.604C314.663 161.485 315.524 160.611 316.545 159.984C317.566 159.369 318.847 159.115 320.388 159.223C321.829 159.323 323.086 159.772 324.161 160.571C325.235 161.369 326.039 162.504 326.571 163.976C327.104 165.448 327.297 167.233 327.151 169.33C327.035 170.998 326.743 172.552 326.275 173.993C325.806 175.433 325.322 176.637 324.823 177.606L320.306 176.834C321.141 175.42 321.781 174.067 322.226 172.778C322.67 171.501 322.94 170.174 323.036 168.796C323.138 167.331 322.966 166.151 322.521 165.256C322.075 164.362 321.315 163.877 320.241 163.803C319.445 163.747 318.785 163.923 318.262 164.331C317.738 164.739 317.271 165.342 316.86 166.139C316.448 166.948 316.017 167.94 315.567 169.115C314.841 170.969 314.073 172.528 313.261 173.792C312.449 175.056 311.502 175.987 310.419 176.585C309.336 177.195 308.03 177.447 306.501 177.341C305.616 177.279 304.729 177.065 303.841 176.699C302.965 176.333 302.181 175.739 301.489 174.916C300.809 174.107 300.288 173.017 299.926 171.646C299.577 170.276 299.473 168.567 299.616 166.52Z" fill="#405F59"/>
<path d="M288.432 224.952L310.609 239.64L301.597 253.247L298.112 250.939L304.69 241.007L299.32 237.45L294.242 245.117L290.757 242.809L295.835 235.142L285.998 228.627L288.432 224.952Z" fill="#405F59"/>
<path d="M256.882 265.634C258.886 264.085 261.019 263.157 263.279 262.851C265.54 262.544 267.747 262.863 269.902 263.807C272.064 264.761 274.002 266.345 275.714 268.56C277.426 270.774 278.467 273.043 278.838 275.366C279.217 277.699 278.973 279.921 278.107 282.031C277.241 284.142 275.806 285.972 273.801 287.521C271.797 289.071 269.665 289.999 267.404 290.305C265.144 290.612 262.932 290.288 260.77 289.334C258.615 288.39 256.682 286.811 254.969 284.596C253.257 282.381 252.212 280.107 251.833 277.774C251.463 275.451 251.71 273.235 252.576 271.124C253.442 269.014 254.878 267.184 256.882 265.634ZM259.497 269.017C258.023 270.156 257.043 271.434 256.554 272.852C256.073 274.281 256.024 275.76 256.406 277.29C256.788 278.819 257.537 280.306 258.652 281.749C259.768 283.192 261.018 284.291 262.402 285.046C263.786 285.801 265.226 286.121 266.722 286.006C268.225 285.9 269.714 285.278 271.187 284.139C272.67 282.992 273.652 281.705 274.133 280.277C274.621 278.858 274.675 277.384 274.292 275.854C273.91 274.325 273.162 272.838 272.046 271.395C270.93 269.952 269.681 268.853 268.296 268.098C266.912 267.343 265.468 267.018 263.965 267.124C262.469 267.239 260.98 267.87 259.497 269.017Z" fill="#405F59"/>
<path d="M227.872 287.598L236.559 312.74L227.741 315.787C226.005 316.386 224.389 316.636 222.894 316.536C221.403 316.449 220.104 315.966 218.997 315.089C217.89 314.212 217.034 312.899 216.43 311.151C215.81 309.355 215.696 307.766 216.09 306.384C216.471 305.006 217.215 303.764 218.32 302.658L209.034 294.107L213.811 292.457L222.05 300.244C222.085 300.232 222.115 300.221 222.139 300.213C222.163 300.205 222.193 300.195 222.229 300.182L226.916 298.563L223.634 289.063L227.872 287.598ZM228.145 302.118L224.356 303.428C222.524 304.06 221.355 304.906 220.85 305.965C220.337 307.041 220.3 308.213 220.738 309.482C221.202 310.823 221.951 311.73 222.985 312.203C224.02 312.677 225.423 312.607 227.195 311.995L231.092 310.649L228.145 302.118Z" fill="#405F59"/>
<path d="M161.923 303.389L152.583 328.561L149.022 327.768L145.21 314.112L136.04 324.879L132.442 324.078L134.679 297.325L139.167 298.324L137.229 319.012L136.11 318.529L147.001 306.063L151.637 321.966L150.423 321.91L157.435 302.39L161.923 303.389Z" fill="#405F59"/>
<path d="M103.311 285.262C105.428 286.653 106.999 288.368 108.025 290.406C109.05 292.444 109.467 294.635 109.275 296.979C109.077 299.335 108.209 301.682 106.671 304.021C105.134 306.361 103.328 308.084 101.252 309.19C99.1688 310.307 96.9887 310.8 94.7113 310.667C92.4338 310.535 90.2365 309.773 88.1193 308.382C86.0021 306.991 84.4309 305.276 83.4055 303.239C82.3801 301.201 81.9667 299.004 82.1653 296.649C82.3569 294.305 83.2213 291.962 84.7585 289.623C86.2958 287.283 88.1058 285.555 90.1887 284.438C92.2646 283.332 94.4413 282.845 96.7187 282.977C98.9962 283.109 101.193 283.871 103.311 285.262ZM100.963 288.835C99.407 287.813 97.8788 287.301 96.3787 287.301C94.8716 287.311 93.4569 287.745 92.1347 288.604C90.8124 289.463 89.6505 290.655 88.6489 292.179C87.6473 293.704 87.0146 295.243 86.751 296.798C86.4873 298.352 86.6534 299.818 87.2493 301.195C87.8382 302.582 88.9108 303.787 90.4669 304.809C92.0336 305.839 93.5705 306.348 95.0776 306.338C96.5777 306.339 97.9889 305.91 99.3112 305.051C100.633 304.192 101.795 303 102.797 301.476C103.799 299.951 104.431 298.412 104.695 296.857C104.959 295.303 104.796 293.832 104.207 292.444C103.611 291.068 102.53 289.865 100.963 288.835Z" fill="#405F59"/>
<path d="M72.6671 264.863L51.504 280.978L45.8524 273.555C44.7397 272.094 43.9969 270.638 43.6241 269.186C43.2411 267.743 43.2931 266.358 43.78 265.032C44.2669 263.706 45.246 262.483 46.7173 261.362C48.229 260.211 49.7028 259.606 51.1388 259.548C52.5671 259.479 53.9793 259.797 55.3753 260.501L60.5926 249.006L63.6544 253.027L58.8347 263.288C58.8577 263.318 58.8769 263.343 58.8922 263.363C58.9076 263.384 58.9267 263.409 58.9498 263.439L61.954 267.384L69.9506 261.295L72.6671 264.863ZM58.961 269.664L56.5322 266.474C55.3582 264.932 54.1892 264.087 53.0253 263.938C51.8436 263.787 50.7186 264.118 49.6504 264.932C48.5217 265.791 47.8943 266.786 47.7683 267.917C47.6423 269.048 48.1471 270.359 49.2828 271.851L51.7806 275.131L58.961 269.664Z" fill="#405F59"/>
<path d="M46.9909 230.612L21.882 239.393L16.3563 223.593L20.302 222.213L24.3475 233.781L30.4274 231.655L27.26 222.598L31.2057 221.218L34.3731 230.275L41.565 227.76L37.4003 215.851L41.346 214.471L46.9909 230.612Z" fill="#405F59"/>
</svg>
