<svg width="78" height="78" viewBox="0 0 78 78" fill="none" xmlns="http://www.w3.org/2000/svg">
<path d="M35.2046 10.5908H10.1566C8.25854 10.5908 6.43824 11.3448 5.09612 12.6869C3.754 14.0291 3 15.8494 3 17.7474V67.8435C3 69.7416 3.754 71.5619 5.09612 72.904C6.43824 74.2461 8.25854 75.0001 10.1566 75.0001H60.2527C62.1507 75.0001 63.9711 74.2461 65.3132 72.904C66.6553 71.5619 67.4093 69.7416 67.4093 67.8435V42.7955" stroke="black" stroke-width="5" stroke-linecap="round" stroke-linejoin="round"/>
<path d="M62.0418 5.22327C63.4653 3.79973 65.3961 3 67.4093 3C69.4224 3 71.3532 3.79973 72.7767 5.22327C74.2002 6.6468 75 8.57753 75 10.5907C75 12.6039 74.2002 14.5346 72.7767 15.9581L38.7829 49.9519L24.4697 53.5302L28.048 39.2171L62.0418 5.22327Z" stroke="black" stroke-width="5" stroke-linecap="round" stroke-linejoin="round"/>
</svg>
