<svg width="89" height="78" viewBox="0 0 89 78" fill="none" xmlns="http://www.w3.org/2000/svg">
<path d="M79.184 9.36532C77.1669 7.34733 74.772 5.74651 72.1362 4.65433C69.5003 3.56215 66.675 3 63.8218 3C60.9686 3 58.1434 3.56215 55.5075 4.65433C52.8716 5.74651 50.4767 7.34733 48.4597 9.36532L44.2736 13.5514L40.0875 9.36532C36.0132 5.29103 30.4873 3.00211 24.7254 3.00211C18.9634 3.00211 13.4375 5.29103 9.36321 9.36532C5.28892 13.4396 3 18.9655 3 24.7275C3 30.4894 5.28892 36.0153 9.36321 40.0896L13.5493 44.2757L44.2736 75L74.9979 44.2757L79.184 40.0896C81.202 38.0726 82.8028 35.6777 83.895 33.0418C84.9871 30.4059 85.5493 27.5807 85.5493 24.7275C85.5493 21.8743 84.9871 19.049 83.895 16.4131C82.8028 13.7772 81.202 11.3824 79.184 9.36532V9.36532Z" stroke="black" stroke-width="5" stroke-linecap="round" stroke-linejoin="round"/>
</svg>
