<svg width="25" height="25" viewBox="0 0 25 25" fill="none" xmlns="http://www.w3.org/2000/svg">
<path d="M17.7069 0.651331C18.645 0.618948 19.5799 0.778011 20.4546 1.11881C21.3292 1.45962 22.1252 1.97501 22.7939 2.63355C23.4386 3.3021 23.9427 4.09307 24.2763 4.9597C24.61 5.82634 24.7665 6.75105 24.7366 7.67919V17.6503C24.7366 19.7327 24.0557 21.5247 22.7539 22.7861C21.3729 24.0607 19.5454 24.7405 17.6668 24.6782H7.77312C5.91029 24.7359 4.10003 24.0559 2.73614 22.7861C2.06005 22.1091 1.53065 21.3002 1.18091 20.4097C0.831178 19.5192 0.668604 18.5663 0.703319 17.6103V7.67919C0.703319 3.45447 3.50721 0.651331 7.73306 0.651331H17.7069ZM17.757 2.88383H7.77312C6.32111 2.88383 5.06937 3.31431 4.23822 4.13523C3.7941 4.60814 3.44991 5.16572 3.22624 5.77464C3.00256 6.38356 2.90399 7.03132 2.93641 7.67919V17.6103C2.93641 19.112 3.36701 20.3133 4.23822 21.1943C5.20988 22.0535 6.47716 22.5021 7.77312 22.4457H17.6668C18.9628 22.5021 20.2301 22.0535 21.2017 21.1943C21.6682 20.7329 22.0337 20.1796 22.2751 19.5695C22.5164 18.9595 22.6283 18.3059 22.6037 17.6503V7.67919C22.636 6.39041 22.1697 5.13887 21.3019 4.18528C20.8288 3.74128 20.2711 3.39719 19.662 3.17357C19.0529 2.94996 18.405 2.85141 17.757 2.88383ZM12.72 6.41778C16.1147 6.41778 18.9286 9.22091 18.9286 12.6247C18.9286 14.2709 18.2745 15.8497 17.1101 17.0137C15.9458 18.1777 14.3666 18.8317 12.72 18.8317C11.0734 18.8317 9.49417 18.1777 8.32983 17.0137C7.16549 15.8497 6.51137 14.2709 6.51137 12.6247C6.51137 10.9785 7.16549 9.39978 8.32983 8.23575C9.49417 7.07172 11.0734 6.41778 12.72 6.41778ZM12.72 8.64026C11.6672 8.64553 10.6591 9.06595 9.91468 9.81017C9.17027 10.5544 8.74973 11.5622 8.74446 12.6147C8.74973 13.6672 9.17027 14.675 9.91468 15.4193C10.6591 16.1635 11.6672 16.5839 12.72 16.5892C13.7727 16.5839 14.7809 16.1635 15.5253 15.4193C16.2697 14.675 16.6902 13.6672 16.6955 12.6147C16.6902 11.5622 16.2697 10.5544 15.5253 9.81017C14.7809 9.06595 13.7727 8.64553 12.72 8.64026ZM19.1689 4.86604C19.5407 4.86604 19.8973 5.01371 20.1602 5.27655C20.4232 5.5394 20.5709 5.89589 20.5709 6.26761C20.5709 6.63933 20.4232 6.99582 20.1602 7.25867C19.8973 7.52151 19.5407 7.66918 19.1689 7.66918C18.7971 7.66918 18.4405 7.52151 18.1776 7.25867C17.9147 6.99582 17.767 6.63933 17.767 6.26761C17.767 5.89589 17.9147 5.5394 18.1776 5.27655C18.4405 5.01371 18.7971 4.86604 19.1689 4.86604Z" fill="#1E2C29"/>
</svg>
