<svg width="24" height="24" viewBox="0 0 24 24" fill="none" xmlns="http://www.w3.org/2000/svg">
<path d="M16.6175 0.0185931C17.5218 -0.0124562 18.423 0.140055 19.2661 0.466821C20.1092 0.793586 20.8764 1.28775 21.5211 1.91916C22.1425 2.56018 22.6284 3.31857 22.9501 4.1495C23.2717 4.98044 23.4226 5.86707 23.3937 6.75698V16.3174C23.3937 18.314 22.7374 20.0322 21.4825 21.2416C20.1513 22.4638 18.3897 23.1155 16.5789 23.0558H7.04194C5.24629 23.1111 3.50131 22.4591 2.18659 21.2416C1.53488 20.5925 1.02457 19.8169 0.68745 18.9631C0.350327 18.1093 0.193616 17.1957 0.227079 16.279V6.75698C0.227079 2.70627 2.92986 0.0185931 7.00333 0.0185931H16.6175ZM16.6658 2.15913H7.04194C5.64229 2.15913 4.43569 2.57188 3.63451 3.35899C3.2064 3.81242 2.87463 4.34704 2.65902 4.93088C2.44341 5.51472 2.34839 6.13579 2.37965 6.75698V16.279C2.37965 17.7188 2.79472 18.8707 3.63451 19.7154C4.57113 20.5392 5.79271 20.9693 7.04194 20.9153H16.5789C17.8281 20.9693 19.0497 20.5392 19.9863 19.7154C20.436 19.273 20.7883 18.7425 21.0209 18.1576C21.2536 17.5726 21.3614 16.946 21.3377 16.3174V6.75698C21.3688 5.52129 20.9193 4.32129 20.0828 3.40698C19.6269 2.98127 19.0892 2.65135 18.5021 2.43694C17.915 2.22254 17.2904 2.12805 16.6658 2.15913ZM11.8104 5.54752C15.0827 5.54752 17.7951 8.2352 17.7951 11.4988C17.7951 13.0772 17.1646 14.5909 16.0422 15.707C14.9199 16.8231 13.3977 17.4501 11.8104 17.4501C10.2232 17.4501 8.70093 16.8231 7.57857 15.707C6.45622 14.5909 5.82569 13.0772 5.82569 11.4988C5.82569 9.92042 6.45622 8.40669 7.57857 7.29061C8.70093 6.17453 10.2232 5.54752 11.8104 5.54752ZM11.8104 7.67846C10.7956 7.68351 9.82385 8.08662 9.10628 8.80018C8.38871 9.51374 7.98333 10.4801 7.97826 11.4892C7.98333 12.4983 8.38871 13.4647 9.10628 14.1782C9.82385 14.8918 10.7956 15.2949 11.8104 15.2999C12.8252 15.2949 13.797 14.8918 14.5145 14.1782C15.2321 13.4647 15.6375 12.4983 15.6426 11.4892C15.6375 10.4801 15.2321 9.51374 14.5145 8.80018C13.797 8.08662 12.8252 7.68351 11.8104 7.67846ZM18.0268 4.0597C18.3852 4.0597 18.7289 4.20129 18.9824 4.4533C19.2358 4.70532 19.3782 5.04713 19.3782 5.40354C19.3782 5.75995 19.2358 6.10176 18.9824 6.35378C18.7289 6.60579 18.3852 6.74738 18.0268 6.74738C17.6684 6.74738 17.3247 6.60579 17.0712 6.35378C16.8178 6.10176 16.6754 5.75995 16.6754 5.40354C16.6754 5.04713 16.8178 4.70532 17.0712 4.4533C17.3247 4.20129 17.6684 4.0597 18.0268 4.0597Z" fill="#F3F6F7"/>
</svg>
