<svg width="25" height="25" viewBox="0 0 25 25" fill="none" xmlns="http://www.w3.org/2000/svg">
<path d="M23.015 0.647217H2.52661C1.55526 0.647217 0.75415 1.41809 0.75415 2.36916V22.9524C0.75415 23.9034 1.55526 24.6743 2.52661 24.6743H23.015C23.9964 24.6743 24.7875 23.9034 24.7875 22.9524V2.36916C24.7875 1.41809 23.9864 0.647217 23.015 0.647217ZM8.03425 20.7699H4.40922V9.89765H8.03425V20.7699ZM6.23175 8.41598H6.2017C4.98001 8.41598 4.19893 7.58504 4.19893 6.54387C4.19893 5.48267 5.00004 4.67176 6.25177 4.67176C7.49349 4.67176 8.25455 5.47266 8.27458 6.54387C8.27458 7.58504 7.4935 8.41598 6.22173 8.41598H6.23175ZM21.1224 20.7699H17.4874V14.9634C17.4874 13.5117 16.9666 12.5106 15.6548 12.5106C14.6534 12.5106 14.0526 13.1814 13.7822 13.8321C13.6821 14.0623 13.6721 14.3827 13.6721 14.7131V20.7699H10.047C10.047 20.7699 10.0971 10.9388 10.047 9.91767H13.6821V11.4594C14.0102 10.8901 14.4878 10.4212 15.0632 10.1036C15.6386 9.786 16.2898 9.63169 16.9466 9.65738C19.3399 9.65738 21.1324 11.2191 21.1324 14.5529V20.7699H21.1224Z" fill="#1E2C29"/>
</svg>
