<svg width="24" height="25" viewBox="0 0 24 25" fill="none" xmlns="http://www.w3.org/2000/svg">
<path d="M22.2921 0.975586H2.54253C1.60621 0.975586 0.833984 1.71466 0.833984 2.62651V22.3608C0.833984 23.2726 1.60621 24.0117 2.54253 24.0117H22.2921C23.2381 24.0117 24.0006 23.2726 24.0006 22.3608V2.62651C24.0006 1.71466 23.2284 0.975586 22.2921 0.975586ZM7.85155 20.2683H4.35725V9.8445H7.85155V20.2683ZM6.11405 8.42394H6.08509C4.90745 8.42394 4.15454 7.62727 4.15454 6.62904C4.15454 5.61161 4.92676 4.83414 6.13336 4.83414C7.3303 4.83414 8.06391 5.60201 8.08322 6.62904C8.08322 7.62727 7.3303 8.42394 6.1044 8.42394H6.11405ZM20.4677 20.2683H16.9638V14.7013C16.9638 13.3095 16.4618 12.3497 15.1973 12.3497C14.232 12.3497 13.6529 12.9928 13.3922 13.6167C13.2957 13.8374 13.2861 14.1446 13.2861 14.4613V20.2683H9.79176C9.79176 20.2683 9.84002 10.8427 9.79176 9.86369H13.2957V11.3418C13.612 10.796 14.0724 10.3465 14.627 10.042C15.1816 9.73745 15.8094 9.58951 16.4425 9.61414C18.7495 9.61414 20.4774 11.1115 20.4774 14.3077V20.2683H20.4677Z" fill="#F3F6F7"/>
</svg>
