<svg width="150" height="47" viewBox="0 0 150 47" fill="none" xmlns="http://www.w3.org/2000/svg">
<path d="M28.2833 35.7389C28.514 38.4939 27.5818 41.3289 25.4831 43.4461C23.3843 45.5633 20.5577 46.5209 17.8009 46.3142C17.5703 43.5596 18.5025 40.7246 20.6012 38.6068C22.6999 36.4897 25.5266 35.5326 28.2833 35.7389Z" fill="#252525"/>
<path d="M23.2902 31.9105C20.5389 34.8528 16.5642 36.6166 12.2248 36.4184C7.88583 36.2203 4.08885 34.1019 1.61719 30.9217C4.3685 27.9794 8.34315 26.2156 12.6826 26.4138C17.0215 26.612 20.8185 28.7303 23.2902 31.9105Z" fill="#252525"/>
<path d="M0 22.4417C0.574735 15.5522 4.05062 8.94805 10.1052 4.59787C16.1595 0.247857 23.5272 -0.939277 30.2398 0.713908C29.6653 7.60339 26.1891 14.2075 20.1346 18.5577C14.0803 22.9077 6.71258 24.0949 0 22.4417Z" fill="#252525"/>
<path d="M111.605 13.993V18.1883H114.123V40.1214H118.597V18.1883H124.471V13.993H118.597V9.70009C118.597 8.46941 118.709 7.48131 118.933 6.73537C119.157 5.98954 119.455 5.46749 119.828 5.16909C120.238 4.8335 120.723 4.66573 121.283 4.66573C121.73 4.66573 122.196 4.75898 122.681 4.94532C123.203 5.09452 123.65 5.48606 124.023 6.12006L126.485 2.4282C126.224 2.05523 125.851 1.70101 125.366 1.36547C124.919 1.02975 124.378 0.749983 123.744 0.526271C123.11 0.302501 122.382 0.190674 121.562 0.190674C119.996 0.190674 118.653 0.526272 117.534 1.19752C116.453 1.83152 115.614 2.80105 115.017 4.1063C114.421 5.41155 114.123 7.08959 114.123 9.14066V13.993H111.605Z" fill="#252525"/>
<path d="M41.3311 5.43994V40.1214H61.4686V35.6463H46.0859V5.43994H41.3311Z" fill="#252525"/>
<path fill-rule="evenodd" clip-rule="evenodd" d="M73.3936 40.6808C76.1535 40.6808 78.5402 40.14 80.5538 39.0584C82.6047 37.9395 84.3016 36.2987 85.6439 34.1359L82.008 31.8424C81.076 33.4087 79.9385 34.5834 78.5961 35.3665C77.2537 36.1123 75.7059 36.4852 73.9531 36.4852C72.2003 36.4852 70.7089 36.1123 69.4782 35.3665C68.2476 34.6207 67.3151 33.5392 66.6811 32.1221C66.1997 31.0452 65.9005 29.796 65.7852 28.3743H86.0357V27.8709C86.073 27.5726 86.0916 27.2928 86.0916 27.0318C86.0916 24.3095 85.6067 21.9602 84.6374 19.9837C83.6676 18.0072 82.2694 16.4969 80.442 15.4526C78.652 14.3713 76.4888 13.8306 73.9531 13.8306C71.4173 13.8306 69.1796 14.3899 67.2405 15.5086C65.3387 16.6274 63.8473 18.1937 62.7657 20.2074C61.7214 22.2212 61.1992 24.5705 61.1992 27.2555C61.1992 29.9033 61.7028 32.2339 62.7098 34.2477C63.7536 36.2615 65.1897 37.8464 67.017 39.0025C68.8816 40.1213 71.0069 40.6808 73.3936 40.6808ZM66.737 21.9975C66.3796 22.7544 66.117 23.6121 65.9494 24.5705H81.2C81.1138 23.345 80.8053 22.2637 80.2738 21.3262C79.6771 20.2074 78.8383 19.3312 77.7567 18.6972C76.6757 18.0632 75.4072 17.7461 73.9531 17.7461C72.2375 17.7461 70.7647 18.1191 69.5341 18.8649C68.3408 19.5734 67.4082 20.6177 66.737 21.9975Z" fill="#252525"/>
<path fill-rule="evenodd" clip-rule="evenodd" d="M104.308 26.0135C103.605 25.5522 102.71 25.1459 101.624 24.7943C100.393 24.3468 98.8452 24.123 96.9806 24.123C93.8109 24.123 91.331 24.8875 89.541 26.4165C87.7882 27.9081 86.9121 29.9033 86.9121 32.4019C86.9121 34.1545 87.3219 35.6462 88.1422 36.8768C88.963 38.1078 90.0445 39.0584 91.3869 39.7296C92.7666 40.3635 94.2399 40.6808 95.8059 40.6808C97.2228 40.6808 98.6403 40.4194 100.057 39.8978C101.512 39.3756 102.724 38.5735 103.693 37.4923C103.925 37.2432 104.13 36.9794 104.308 36.7008V40.1213H108.783V21.6618C108.783 19.9837 108.355 18.5666 107.497 17.4106C106.677 16.2545 105.502 15.3781 103.973 14.7815C102.481 14.1475 100.728 13.8306 98.7148 13.8306C96.328 13.8306 94.2772 14.1848 92.5617 14.8934C90.8834 15.6019 89.5596 16.3104 88.5898 17.0189L90.7716 20.3192C91.1814 20.0209 91.7414 19.6667 92.4499 19.2564C93.1583 18.8462 94.0158 18.492 95.0229 18.1937C96.0672 17.8954 97.2228 17.7461 98.4912 17.7461C99.2742 17.7461 100.02 17.8206 100.728 17.9699C101.437 18.1191 102.052 18.3614 102.574 18.6972C103.134 19.0327 103.563 19.4989 103.861 20.0955C104.159 20.6549 104.308 21.3822 104.308 22.2772V26.0135ZM92.114 29.7728C91.6664 30.4441 91.4428 31.2459 91.4428 32.1781C91.4428 33.1477 91.6664 33.9867 92.114 34.6952C92.5989 35.4037 93.2515 35.9445 94.0717 36.3175C94.9298 36.653 95.899 36.821 96.9806 36.821C98.3602 36.821 99.5909 36.5412 100.672 35.9818C101.791 35.4225 102.667 34.6392 103.301 33.6324C103.973 32.5882 104.308 31.3949 104.308 30.0524V29.0847C103.592 28.736 102.865 28.4618 102.127 28.2623C100.747 27.8523 99.2742 27.6471 97.7077 27.6471C96.2535 27.6471 95.0602 27.8335 94.1276 28.2066C93.2329 28.5794 92.5617 29.1015 92.114 29.7728Z" fill="#252525"/>
<path fill-rule="evenodd" clip-rule="evenodd" d="M143.888 39.0584C141.875 40.14 139.488 40.6808 136.729 40.6808C134.342 40.6808 132.216 40.1213 130.351 39.0025C128.524 37.8464 127.089 36.2615 126.044 34.2477C125.037 32.2339 124.534 29.9033 124.534 27.2555C124.534 24.5705 125.056 22.2212 126.1 20.2074C127.182 18.1937 128.673 16.6274 130.575 15.5086C132.515 14.3899 134.752 13.8306 137.288 13.8306C139.824 13.8306 141.986 14.3713 143.776 15.4526C145.604 16.4969 147.002 18.0072 147.972 19.9837C148.942 21.9602 149.426 24.3095 149.426 27.0318C149.426 27.2928 149.407 27.5726 149.37 27.8709V28.3743H129.12C129.235 29.796 129.534 31.0452 130.016 32.1221C130.65 33.5392 131.582 34.6207 132.813 35.3665C134.043 36.1123 135.535 36.4852 137.288 36.4852C139.04 36.4852 140.588 36.1123 141.931 35.3665C143.273 34.5834 144.41 33.4087 145.343 31.8424L148.979 34.1359C147.636 36.2987 145.94 37.9395 143.888 39.0584ZM129.284 24.5705C129.452 23.6121 129.715 22.7544 130.072 21.9975C130.743 20.6177 131.675 19.5734 132.869 18.8649C134.099 18.1191 135.572 17.7461 137.288 17.7461C138.742 17.7461 140.01 18.0632 141.092 18.6972C142.173 19.3312 143.012 20.2074 143.609 21.3262C144.14 22.2637 144.449 23.345 144.535 24.5705H129.284Z" fill="#252525"/>
</svg>
