<svg width="231" height="38" viewBox="0 0 231 38" fill="none" xmlns="http://www.w3.org/2000/svg">
<path fill-rule="evenodd" clip-rule="evenodd" d="M23.2809 1.24585C19.6073 1.24585 16.6292 4.20326 16.6292 7.85137C16.6292 11.4995 19.6073 14.4569 23.2809 14.4569C26.9547 14.4569 29.9326 11.4995 29.9326 7.85137C29.9326 4.20326 26.9547 1.24585 23.2809 1.24585ZM10.2754 14.0965C17.1994 14.0965 22.8124 19.6705 22.8124 26.5464V36.7507H16.5765V26.5464C16.5765 25.814 16.4498 25.1114 16.2171 24.4583L7.05732 33.5545L2.64783 29.1754L11.4812 20.4036C11.0909 20.3285 10.6877 20.2891 10.2754 20.2891H0V14.0965H10.2754ZM36.4417 14.0965C29.5177 14.0965 23.9045 19.6705 23.9045 26.5464V36.7507H30.1405V26.5464C30.1405 25.973 30.2182 25.4173 30.3637 24.8897L39.9455 34.4049L44.3552 30.0259L34.7734 20.5108C35.3047 20.3663 35.8643 20.2891 36.4417 20.2891H46.7169V14.0965H36.4417Z" fill="#252525"/>
<path d="M56.6836 37.3736V1.24585H66.9826L78.0248 32.2049H78.8211V1.24585H84.7137V37.3736H74.6273L63.3194 6.36175H62.5763V37.3736H56.6836Z" fill="#252525"/>
<path d="M107.784 32.1909L109.254 32.0372L109.359 36.1933C105.368 36.9801 101.832 37.3735 98.7513 37.3735C94.8652 37.3735 92.0643 36.3299 90.349 34.2435C88.6684 32.1566 87.8281 28.8216 87.8281 24.2378C87.8281 15.1387 91.6266 10.5891 99.224 10.5891C106.576 10.5891 110.252 14.5058 110.252 22.3393L109.885 26.3413H93.6047C93.6397 28.4624 94.1125 30.0189 95.0229 31.0107C95.9329 32.0029 97.631 32.4987 100.117 32.4987C102.602 32.4987 105.158 32.3963 107.784 32.1909ZM104.633 22.0315C104.633 19.5001 104.213 17.7384 103.373 16.7464C102.568 15.7202 101.185 15.2071 99.224 15.2071C97.2634 15.2071 95.8281 15.7373 94.9177 16.7977C94.0424 17.8581 93.5872 19.6027 93.5525 22.0315H104.633Z" fill="#252525"/>
<path d="M127.479 15.5438H120.087V27.033C120.087 29.157 120.248 30.5669 120.57 31.2631C120.891 31.9593 121.712 32.3079 123.033 32.3079L127.425 32.151L127.693 36.6944C125.301 37.147 123.48 37.3736 122.23 37.3736C119.195 37.3736 117.106 36.6944 115.964 35.3368C114.856 33.9787 114.303 31.4199 114.303 27.66V15.5438H110.875V10.687H114.303V3.1145H120.087V10.687H127.479V15.5438Z" fill="#252525"/>
<path d="M127.069 11.2122H132.67L136.805 32.5078H137.852L142.825 11.7354H148.688L153.66 32.5078H154.707L158.79 11.2122H164.443L158.894 37.3736H149.839L145.756 19.4269L141.673 37.3736H132.618L127.069 11.2122Z" fill="#252525"/>
<path d="M168.325 13.9243C170.116 11.7008 173.079 10.5891 177.213 10.5891C181.347 10.5891 184.292 11.7008 186.049 13.9243C187.841 16.1477 188.736 19.483 188.736 23.93C188.736 28.3768 187.875 31.729 186.152 33.9866C184.43 36.2447 181.45 37.3735 177.213 37.3735C172.976 37.3735 169.995 36.2447 168.273 33.9866C166.55 31.729 165.689 28.3768 165.689 23.93C165.689 19.483 166.568 16.1477 168.325 13.9243ZM172.562 30.6002C173.355 31.9687 174.905 32.6528 177.213 32.6528C179.521 32.6528 181.071 31.9687 181.864 30.6002C182.656 29.2321 183.052 26.9916 183.052 23.8786C183.052 20.7657 182.622 18.5594 181.76 17.2595C180.933 15.9596 179.418 15.3097 177.213 15.3097C175.008 15.3097 173.475 15.9596 172.614 17.2595C171.787 18.5594 171.374 20.7657 171.374 23.8786C171.374 26.9916 171.77 29.2321 172.562 30.6002Z" fill="#252525"/>
<path d="M191.851 37.3735V11.1657H197.658V14.3106C200.705 12.3887 203.753 11.1482 206.8 10.5891V16.3024C203.717 16.8964 201.082 17.6652 198.895 18.6087L197.712 19.0804V37.3735H191.851Z" fill="#252525"/>
<path d="M214.34 37.3735H208.669V0H214.34V21.59L217.566 21.2734L223.706 10.9798H230.054L222.561 23.3322L230.47 37.3735H224.07L217.723 26.2353L214.34 26.6047V37.3735Z" fill="#252525"/>
</svg>
