<svg width="188" height="50" viewBox="0 0 188 50" fill="none" xmlns="http://www.w3.org/2000/svg">
<path fill-rule="evenodd" clip-rule="evenodd" d="M37.1729 8.67371H16.7275V0H45.8464V29.1188H37.1729V8.67371Z" fill="#252525"/>
<path fill-rule="evenodd" clip-rule="evenodd" d="M21.2025 25.9329C19.878 25.0479 18.3208 24.5756 16.7278 24.5756V15.9019C20.0363 15.9019 23.2705 16.8829 26.0214 18.721C28.7723 20.5591 30.9163 23.1716 32.1824 26.2282C33.4485 29.285 33.78 32.6483 33.1345 35.893C32.489 39.1383 30.8959 42.1186 28.5562 44.4583C26.2168 46.7976 23.2362 48.3907 19.9913 49.0362C16.7464 49.6817 13.383 49.3503 10.3263 48.0841C7.26974 46.818 4.65724 44.6742 2.81915 41.9231C0.981062 39.1725 0 35.9382 0 32.6294H8.67371C8.67371 34.2225 9.14608 35.7799 10.0311 37.1041C10.916 38.4288 12.174 39.4613 13.6456 40.071C15.1174 40.6803 16.7368 40.84 18.2992 40.5289C19.8615 40.2184 21.2966 39.4513 22.423 38.3251C23.5494 37.1984 24.3165 35.7635 24.6273 34.2012C24.938 32.6389 24.7786 31.019 24.169 29.5475C23.5594 28.0758 22.527 26.8179 21.2025 25.9329Z" fill="#252525"/>
<path d="M59.4766 42.5625V6.17163H72.9412C75.8525 6.17163 78.2613 6.6568 80.1674 7.62725C82.0736 8.59764 83.4945 9.932 84.4303 11.6302C85.366 13.3285 85.8338 15.2347 85.8338 17.3488C85.8338 19.3589 85.3833 21.2132 84.4823 22.9114C83.5809 24.5749 82.1773 25.9266 80.2711 26.9664C78.365 27.9714 75.9215 28.474 72.9412 28.474H66.1307V42.5625H59.4766ZM66.1307 23.0673H72.525C74.8474 23.0673 76.5109 22.5648 77.5161 21.5597C78.5555 20.52 79.0754 19.1163 79.0754 17.3488C79.0754 15.5466 78.5555 14.1429 77.5161 13.1378C76.5109 12.0981 74.8474 11.5782 72.525 11.5782H66.1307V23.0673Z" fill="#252525"/>
<path d="M99.5079 43.1862C96.9087 43.1862 94.6041 42.6315 92.5938 41.5226C90.5834 40.4138 89.0067 38.8539 87.8631 36.8441C86.7195 34.8337 86.1475 32.5118 86.1475 29.8778C86.1475 27.209 86.7021 24.8349 87.811 22.7554C88.9546 20.676 90.5145 19.0644 92.4901 17.9207C94.4999 16.7423 96.8566 16.1531 99.56 16.1531C102.09 16.1531 104.325 16.7076 106.266 17.8167C108.207 18.9257 109.715 20.4507 110.789 22.3915C111.898 24.2977 112.453 26.4292 112.453 28.7859C112.453 29.1673 112.435 29.5657 112.401 29.9815C112.401 30.3973 112.384 30.8309 112.349 31.2814H92.7496C92.8885 33.2912 93.5816 34.8684 94.8294 36.012C96.1114 37.1556 97.6539 37.7277 99.4563 37.7277C100.808 37.7277 101.934 37.433 102.835 36.8441C103.771 36.2199 104.464 35.4231 104.915 34.4527H111.673C111.188 36.0815 110.373 37.5719 109.23 38.9234C108.12 40.2401 106.734 41.28 105.071 42.0426C103.442 42.8051 101.588 43.1862 99.5079 43.1862ZM99.56 21.5597C97.9312 21.5597 96.4929 22.0276 95.2451 22.9634C93.9973 23.8645 93.2005 25.2508 92.8537 27.1223H105.695C105.591 25.4241 104.967 24.0724 103.823 23.0673C102.679 22.0623 101.258 21.5597 99.56 21.5597Z" fill="#252525"/>
<path d="M115.45 42.5625V16.7769H121.324L121.844 21.1438C122.642 19.6189 123.785 18.4059 125.276 17.5048C126.8 16.6037 128.585 16.1531 130.63 16.1531C133.819 16.1531 136.297 17.1582 138.064 19.1683C139.832 21.1785 140.715 24.1244 140.715 28.0061V42.5625H134.061V28.6299C134.061 26.4118 133.611 24.7136 132.71 23.5352C131.809 22.3569 130.405 21.7677 128.499 21.7677C126.627 21.7677 125.085 22.4262 123.872 23.7432C122.694 25.0602 122.104 26.8971 122.104 29.2537V42.5625H115.45Z" fill="#252525"/>
<path d="M155.968 42.5626C153.265 42.5626 151.099 41.9042 149.47 40.587C147.841 39.2698 147.027 36.9305 147.027 33.5687V22.3396H142.607V16.777H147.027L147.806 9.86279H153.681V16.777H160.647V22.3396H153.681V33.6207C153.681 34.8685 153.941 35.7348 154.461 36.22C155.015 36.6705 155.951 36.8957 157.268 36.8957H160.491V42.5626H155.968Z" fill="#252525"/>
<path d="M172.651 43.1862C170.433 43.1862 168.613 42.8399 167.192 42.1468C165.771 41.4189 164.714 40.4659 164.021 39.287C163.328 38.1087 162.981 36.8093 162.981 35.3884C162.981 32.997 163.917 31.0561 165.789 29.5657C167.66 28.0754 170.468 27.3303 174.211 27.3303H180.761V26.7065C180.761 24.9389 180.258 23.6392 179.253 22.8074C178.248 21.9756 177 21.5597 175.51 21.5597C174.158 21.5597 172.98 21.889 171.975 22.5475C170.97 23.1713 170.346 24.1071 170.103 25.3548H163.605C163.778 23.4832 164.402 21.8543 165.477 20.468C166.586 19.0817 168.007 18.0246 169.74 17.2968C171.472 16.5344 173.413 16.1531 175.562 16.1531C179.236 16.1531 182.13 17.0715 184.244 18.9084C186.358 20.7453 187.415 23.3446 187.415 26.7065V42.5625H181.749L181.125 38.4034C180.362 39.7896 179.288 40.9337 177.902 41.8347C176.55 42.7357 174.8 43.1862 172.651 43.1862ZM174.158 37.9877C176.065 37.9877 177.538 37.3635 178.578 36.1162C179.652 34.8684 180.328 33.326 180.605 31.4893H174.938C173.171 31.4893 171.906 31.8187 171.143 32.4771C170.381 33.1007 170 33.8806 170 34.8164C170 35.8215 170.381 36.6015 171.143 37.1556C171.906 37.7103 172.911 37.9877 174.158 37.9877Z" fill="#252525"/>
</svg>
