<svg width="167" height="47" viewBox="0 0 167 47" fill="none" xmlns="http://www.w3.org/2000/svg">
<path d="M34.9701 7.23605C34.9701 11.2324 31.7305 14.4721 27.7341 14.4721C23.7378 14.4721 20.498 11.2324 20.498 7.23605C20.498 3.23972 23.7378 0 27.7341 0C31.7305 0 34.9701 3.23972 34.9701 7.23605Z" fill="#252525"/>
<path d="M23.833 39.086C10.6704 39.086 0 28.4159 0 15.2533V3.81348C13.1627 3.81348 23.8336 14.4839 23.8336 27.6465L23.833 39.086Z" fill="#252525"/>
<path d="M50.0496 11.4399C36.8872 11.4399 26.2168 22.1103 26.2168 35.273V46.7128C39.3797 46.7128 50.0496 36.0422 50.0496 22.8798V11.4399Z" fill="#252525"/>
<path d="M94.1189 7.11035V35.8049H88.3639V17.141L80.6763 35.8049H76.3191L68.5907 17.141V35.8049H62.835V7.11035H69.3715L78.4977 28.446L87.6239 7.11035H94.1189Z" fill="#252525"/>
<path d="M101.083 10.3169C100.069 10.3169 99.2185 10.0017 98.5336 9.37135C97.8758 8.71356 97.5469 7.90511 97.5469 6.94587C97.5469 5.9867 97.8758 5.19192 98.5336 4.56158C99.2185 3.90385 100.069 3.57495 101.083 3.57495C102.096 3.57495 102.932 3.90385 103.59 4.56158C104.275 5.19192 104.618 5.9867 104.618 6.94587C104.618 7.90511 104.275 8.71356 103.59 9.37135C102.932 10.0017 102.096 10.3169 101.083 10.3169ZM103.919 13.0301V35.8048H98.1639V13.0301H103.919Z" fill="#252525"/>
<path d="M120.581 12.7012C123.295 12.7012 125.487 13.5645 127.159 15.291C128.831 16.9902 129.667 19.3746 129.667 22.4441V35.8048H123.911V23.2251C123.911 21.4163 123.459 20.0323 122.555 19.0731C121.65 18.0864 120.417 17.5932 118.855 17.5932C117.265 17.5932 116.005 18.0864 115.073 19.0731C114.169 20.0323 113.717 21.4163 113.717 23.2251V35.8048H107.961V13.0301H113.717V15.8666C114.484 14.88 115.457 14.1126 116.635 13.5645C117.841 12.989 119.156 12.7012 120.581 12.7012Z" fill="#252525"/>
<path d="M140.196 17.7577V28.7749C140.196 29.5423 140.374 30.1041 140.731 30.4604C141.114 30.7893 141.745 30.9537 142.622 30.9537H145.294V35.8049H141.676C136.826 35.8049 134.4 33.4477 134.4 28.7338V17.7577H130.129V13.0301H134.4V7.39819H140.196V13.0301V17.7577Z" fill="#252525"/>
<path d="M166.872 13.03L152.772 46.5748H146.647L151.579 35.2289L142.453 13.03H148.907L154.786 28.9393L160.747 13.03H166.872Z" fill="#252525"/>
</svg>
