<svg width="148" height="34" viewBox="0 0 148 34" fill="none" xmlns="http://www.w3.org/2000/svg">
<path fill-rule="evenodd" clip-rule="evenodd" d="M6 0H9.2829L0 9.28325V6C0 2.68629 2.68629 0 6 0ZM0 22.8327V14.2821L9.42603 4.85574L23.5644 18.9947L27.9827 14.5763L33.5787 20.1725V27.58C33.5787 27.9389 33.5472 28.2905 33.4868 28.632L27.9823 23.1273L23.564 27.5457L9.42561 13.4068L0 22.8327ZM0.00497722 27.8266C0.134335 31.026 2.76891 33.58 6 33.58H27.5787C29.1993 33.58 30.6698 32.9375 31.7494 31.8934L27.9823 28.1262L23.564 32.5446L9.42561 18.4057L0.00497722 27.8266ZM33.5787 6V15.1736L27.9827 9.57739L23.5644 13.9958L9.56917 0H27.5787C30.8924 0 33.5787 2.68629 33.5787 6Z" fill="#FF9B10"/>
<path d="M51.6306 26.7006C49.7066 26.7006 48.0004 26.2922 46.5121 25.4754C45.0419 24.6586 43.8984 23.506 43.0816 22.0176C42.2648 20.511 41.8564 18.7685 41.8564 16.79C41.8564 14.8296 42.2739 13.1053 43.1088 11.6168C43.9619 10.1103 45.1326 8.9486 46.621 8.13179C48.1275 7.29682 49.8337 6.87934 51.7395 6.87934C53.5727 6.87934 55.2153 7.25145 56.6674 7.99565L56.2862 11.3174C55.5058 10.9725 54.7525 10.7093 54.0265 10.5278C53.3186 10.3281 52.5472 10.2283 51.7123 10.2283C49.7701 10.2283 48.2727 10.8273 47.22 12.0253C46.1854 13.2232 45.6681 14.8115 45.6681 16.79C45.6681 18.7685 46.1763 20.3567 47.1927 21.5547C48.2273 22.7527 49.7066 23.3517 51.6306 23.3517C52.4837 23.3517 53.2641 23.2609 53.972 23.0794C54.698 22.8979 55.4694 22.6256 56.2862 22.2626L56.6674 25.5843C55.0883 26.3285 53.4093 26.7006 51.6306 26.7006Z" fill="#FF9B10"/>
<path d="M64.9879 26.5917C63.554 26.5917 62.3107 26.2741 61.258 25.6388C60.2052 25.0035 59.3975 24.1504 58.8348 23.0794C58.2722 22.0085 57.9908 20.8287 57.9908 19.5399C57.9908 18.2512 58.2722 17.0623 58.8348 15.9732C59.3975 14.8841 60.2052 14.0219 61.258 13.3866C62.3107 12.7513 63.554 12.4337 64.9879 12.4337C66.4218 12.4337 67.6651 12.7513 68.7179 13.3866C69.7706 14.0219 70.5783 14.8841 71.141 15.9732C71.7037 17.0623 71.985 18.2512 71.985 19.5399C71.985 20.8287 71.7037 22.0085 71.141 23.0794C70.5783 24.1504 69.7706 25.0035 68.7179 25.6388C67.6651 26.2741 66.4218 26.5917 64.9879 26.5917ZM64.9879 23.8146C66.0951 23.8146 66.9573 23.4243 67.5744 22.6438C68.2097 21.8633 68.5273 20.8287 68.5273 19.5399C68.5273 18.233 68.2097 17.1893 67.5744 16.4088C66.9573 15.6101 66.0951 15.2108 64.9879 15.2108C63.8807 15.2108 63.0095 15.6101 62.3742 16.4088C61.7571 17.1893 61.4485 18.233 61.4485 19.5399C61.4485 20.8287 61.7571 21.8633 62.3742 22.6438C63.0095 23.4243 63.8807 23.8146 64.9879 23.8146Z" fill="#FF9B10"/>
<path d="M87.5345 26.5917C86.1005 26.5917 84.8572 26.2741 83.8045 25.6388C82.7517 25.0035 81.944 24.1504 81.3814 23.0794C80.8187 22.0085 80.5374 20.8287 80.5374 19.5399C80.5374 18.2512 80.8187 17.0623 81.3814 15.9732C81.944 14.8841 82.7517 14.0219 83.8045 13.3866C84.8572 12.7513 86.1005 12.4337 87.5345 12.4337C88.9684 12.4337 90.2117 12.7513 91.2644 13.3866C92.3172 14.0219 93.1249 14.8841 93.6875 15.9732C94.2502 17.0623 94.5315 18.2512 94.5315 19.5399C94.5315 20.8287 94.2502 22.0085 93.6875 23.0794C93.1249 24.1504 92.3172 25.0035 91.2644 25.6388C90.2117 26.2741 88.9684 26.5917 87.5345 26.5917ZM87.5345 23.8146C88.6416 23.8146 89.5038 23.4243 90.1209 22.6438C90.7562 21.8633 91.0738 20.8287 91.0738 19.5399C91.0738 18.233 90.7562 17.1893 90.1209 16.4088C89.5038 15.6101 88.6416 15.2108 87.5345 15.2108C86.4273 15.2108 85.556 15.6101 84.9208 16.4088C84.3036 17.1893 83.9951 18.233 83.9951 19.5399C83.9951 20.8287 84.3036 21.8633 84.9208 22.6438C85.556 23.4243 86.4273 23.8146 87.5345 23.8146Z" fill="#FF9B10"/>
<path d="M96.8815 12.7059H100.04L100.121 14.149C100.521 13.6952 101.029 13.2958 101.646 12.951C102.281 12.6061 102.944 12.4337 103.634 12.4337C103.851 12.4337 104.051 12.4518 104.233 12.4881L103.987 15.8098C103.643 15.7191 103.252 15.6737 102.817 15.6737C102.254 15.6737 101.737 15.8098 101.265 16.0821C100.793 16.3362 100.457 16.6538 100.258 17.035V26.3194H96.8815V12.7059Z" fill="#FF9B10"/>
<path d="M108.649 26.5917C107.524 26.5917 106.58 26.2287 105.818 25.5026C105.073 24.7584 104.701 23.7601 104.701 22.5077C104.701 21.3278 105.128 20.384 105.981 19.676C106.834 18.95 107.841 18.4418 109.003 18.1513C110.165 17.8428 111.281 17.6703 112.352 17.634C112.315 16.8354 112.107 16.2636 111.726 15.9187C111.363 15.5738 110.755 15.4014 109.901 15.4014C109.302 15.4014 108.713 15.4831 108.132 15.6464C107.569 15.8098 106.916 16.073 106.172 16.436L105.872 13.6861C107.524 12.8874 109.175 12.4881 110.827 12.4881C112.424 12.4881 113.641 12.9237 114.475 13.795C115.329 14.6663 115.755 16.0549 115.755 17.9607V21.6364C115.755 22.3261 115.782 22.8253 115.837 23.1339C115.909 23.4243 116.018 23.6149 116.163 23.7056C116.327 23.7783 116.59 23.8146 116.953 23.8146H117.389L117.089 26.5917H115.864C115.12 26.5917 114.494 26.4556 113.985 26.1833C113.477 25.8929 113.087 25.5026 112.815 25.0125C112.379 25.5026 111.78 25.8929 111.018 26.1833C110.274 26.4556 109.484 26.5917 108.649 26.5917ZM110.065 24.0051C110.41 24.0051 110.8 23.9235 111.236 23.7601C111.671 23.5786 112.052 23.3335 112.379 23.025V19.9211C111.29 19.9755 110.328 20.2115 109.493 20.629C108.658 21.0465 108.241 21.6273 108.241 22.3715C108.241 22.9342 108.386 23.3517 108.676 23.624C108.967 23.8781 109.43 24.0051 110.065 24.0051Z" fill="#FF9B10"/>
<path d="M131.684 5.89917V26.3194H128.498L128.444 25.4482C127.917 25.8294 127.364 26.1198 126.783 26.3194C126.22 26.501 125.549 26.5917 124.768 26.5917C123.443 26.5917 122.3 26.2741 121.338 25.6388C120.394 25.0035 119.677 24.1504 119.187 23.0794C118.697 22.0085 118.452 20.8287 118.452 19.5399C118.452 18.2512 118.697 17.0713 119.187 16.0004C119.677 14.9295 120.394 14.0764 121.338 13.4411C122.3 12.8058 123.443 12.4881 124.768 12.4881C126.093 12.4881 127.273 12.8511 128.308 13.5772V5.89917H131.684ZM125.258 23.8146C126.329 23.8146 127.128 23.4334 127.654 22.671C128.199 21.9087 128.471 20.865 128.471 19.5399C128.471 18.2149 128.199 17.1712 127.654 16.4088C127.128 15.6464 126.329 15.2653 125.258 15.2653C124.205 15.2653 123.38 15.6555 122.781 16.436C122.2 17.2165 121.909 18.2512 121.909 19.5399C121.909 20.8287 122.2 21.8633 122.781 22.6438C123.38 23.4243 124.205 23.8146 125.258 23.8146Z" fill="#FF9B10"/>
<path d="M141.003 26.5917C139.569 26.5917 138.325 26.2741 137.273 25.6388C136.22 25.0035 135.412 24.1504 134.85 23.0794C134.287 22.0085 134.006 20.8287 134.006 19.5399C134.006 18.2512 134.287 17.0623 134.85 15.9732C135.412 14.8841 136.22 14.0219 137.273 13.3866C138.325 12.7513 139.569 12.4337 141.003 12.4337C142.437 12.4337 143.68 12.7513 144.733 13.3866C145.785 14.0219 146.593 14.8841 147.156 15.9732C147.718 17.0623 148 18.2512 148 19.5399C148 20.8287 147.718 22.0085 147.156 23.0794C146.593 24.1504 145.785 25.0035 144.733 25.6388C143.68 26.2741 142.437 26.5917 141.003 26.5917ZM141.003 23.8146C142.11 23.8146 142.972 23.4243 143.589 22.6438C144.224 21.8633 144.542 20.8287 144.542 19.5399C144.542 18.233 144.224 17.1893 143.589 16.4088C142.972 15.6101 142.11 15.2108 141.003 15.2108C139.896 15.2108 139.024 15.6101 138.389 16.4088C137.772 17.1893 137.463 18.233 137.463 19.5399C137.463 20.8287 137.772 21.8633 138.389 22.6438C139.024 23.4243 139.896 23.8146 141.003 23.8146Z" fill="#FF9B10"/>
<rect x="74.418" y="5.44531" width="3.63013" height="20.8741" fill="#FF9B10"/>
</svg>
