<svg width="24" height="24" viewBox="0 0 24 24" fill="none" xmlns="http://www.w3.org/2000/svg">
<path d="M22.2921 0.960938H2.54253C1.60621 0.960938 0.833984 1.70001 0.833984 2.61186V22.3461C0.833984 23.258 1.60621 23.9971 2.54253 23.9971H22.2921C23.2381 23.9971 24.0006 23.258 24.0006 22.3461V2.61186C24.0006 1.70001 23.2284 0.960938 22.2921 0.960938ZM7.85155 20.2537H4.35725V9.82985H7.85155V20.2537ZM6.11405 8.40929H6.08509C4.90745 8.40929 4.15454 7.61262 4.15454 6.61439C4.15454 5.59696 4.92676 4.81949 6.13336 4.81949C7.3303 4.81949 8.06391 5.58736 8.08322 6.61439C8.08322 7.61262 7.3303 8.40929 6.1044 8.40929H6.11405ZM20.4677 20.2537H16.9638V14.6866C16.9638 13.2949 16.4618 12.335 15.1973 12.335C14.232 12.335 13.6529 12.9781 13.3922 13.602C13.2957 13.8228 13.2861 14.1299 13.2861 14.4467V20.2537H9.79176C9.79176 20.2537 9.84002 10.8281 9.79176 9.84905H13.2957V11.3272C13.612 10.7813 14.0724 10.3318 14.627 10.0273C15.1816 9.7228 15.8094 9.57486 16.4425 9.59949C18.7495 9.59949 20.4774 11.0968 20.4774 14.2931V20.2537H20.4677Z" fill="#FF9B10"/>
</svg>
