<svg width="24" height="24" viewBox="0 0 24 24" fill="none" xmlns="http://www.w3.org/2000/svg">
<path d="M16.6175 0.00394463C17.5218 -0.0271046 18.423 0.125407 19.2661 0.452172C20.1092 0.778938 20.8764 1.2731 21.5211 1.90451C22.1425 2.54553 22.6284 3.30392 22.9501 4.13486C23.2717 4.96579 23.4226 5.85242 23.3937 6.74233V16.3028C23.3937 18.2993 22.7374 20.0175 21.4825 21.227C20.1513 22.4491 18.3897 23.1009 16.5789 23.0412H7.04194C5.24629 23.0965 3.50131 22.4445 2.18659 21.227C1.53488 20.5779 1.02457 19.8023 0.68745 18.9485C0.350327 18.0947 0.193616 17.181 0.227079 16.2644V6.74233C0.227079 2.69162 2.92986 0.00394463 7.00333 0.00394463H16.6175ZM16.6658 2.14449H7.04194C5.64229 2.14449 4.43569 2.55724 3.63451 3.34434C3.2064 3.79778 2.87463 4.33239 2.65902 4.91623C2.44341 5.50007 2.34839 6.12114 2.37965 6.74233V16.2644C2.37965 17.7042 2.79472 18.8561 3.63451 19.7008C4.57113 20.5245 5.79271 20.9547 7.04194 20.9006H16.5789C17.8281 20.9547 19.0497 20.5245 19.9863 19.7008C20.436 19.2584 20.7883 18.7279 21.0209 18.1429C21.2536 17.558 21.3614 16.9314 21.3377 16.3028V6.74233C21.3688 5.50664 20.9193 4.30664 20.0828 3.39233C19.6269 2.96662 19.0892 2.6367 18.5021 2.4223C17.915 2.20789 17.2904 2.11341 16.6658 2.14449V2.14449ZM11.8104 5.53287C15.0827 5.53287 17.7951 8.22055 17.7951 11.4842C17.7951 13.0625 17.1646 14.5763 16.0422 15.6923C14.9199 16.8084 13.3977 17.4354 11.8104 17.4354C10.2232 17.4354 8.70093 16.8084 7.57857 15.6923C6.45622 14.5763 5.82569 13.0625 5.82569 11.4842C5.82569 9.90578 6.45622 8.39204 7.57857 7.27596C8.70093 6.15988 10.2232 5.53287 11.8104 5.53287V5.53287ZM11.8104 7.66382C10.7956 7.66886 9.82385 8.07197 9.10628 8.78553C8.38871 9.49909 7.98333 10.4654 7.97826 11.4746C7.98333 12.4837 8.38871 13.45 9.10628 14.1636C9.82385 14.8771 10.7956 15.2802 11.8104 15.2853C12.8252 15.2802 13.797 14.8771 14.5145 14.1636C15.2321 13.45 15.6375 12.4837 15.6426 11.4746C15.6375 10.4654 15.2321 9.49909 14.5145 8.78553C13.797 8.07197 12.8252 7.66886 11.8104 7.66382V7.66382ZM18.0268 4.04505C18.3852 4.04505 18.7289 4.18664 18.9824 4.43866C19.2358 4.69067 19.3782 5.03248 19.3782 5.38889C19.3782 5.7453 19.2358 6.08711 18.9824 6.33913C18.7289 6.59115 18.3852 6.73273 18.0268 6.73273C17.6684 6.73273 17.3247 6.59115 17.0712 6.33913C16.8178 6.08711 16.6754 5.7453 16.6754 5.38889C16.6754 5.03248 16.8178 4.69067 17.0712 4.43866C17.3247 4.18664 17.6684 4.04505 18.0268 4.04505Z" fill="#FF9B10"/>
</svg>
