<svg width="24" height="21" viewBox="0 0 24 21" fill="none" xmlns="http://www.w3.org/2000/svg">
<path d="M23.1667 3.1539C22.3011 3.54788 21.3798 3.80689 20.4349 3.92183C21.4372 3.30748 22.1814 2.35253 22.5296 1.23408C21.6126 1.79082 20.599 2.19399 19.5083 2.40517C19.0681 1.92387 18.5315 1.53945 17.9331 1.2766C17.3346 1.01375 16.6875 0.878289 16.0333 0.878908C15.3055 0.886307 14.5888 1.05763 13.9372 1.37999C13.2855 1.70236 12.7158 2.16739 12.2708 2.74016C11.8258 3.31292 11.5172 3.97851 11.368 4.68693C11.2188 5.39536 11.2331 6.12818 11.4096 6.83036C9.50794 6.72712 7.65033 6.22162 5.96079 5.34761C4.27125 4.4736 2.78866 3.2512 1.61201 1.76203C0.998183 2.82991 0.809335 4.08787 1.08277 5.28747C1.3562 6.48708 2.07203 7.54111 3.08889 8.24143C2.33177 8.21399 1.59284 8.0031 0.936319 7.62709V7.69428C0.936319 10.0365 2.57729 11.9947 4.74916 12.4458C4.05051 12.6363 3.31688 12.6626 2.60625 12.5226C3.21437 14.4521 4.97118 15.8535 7.04653 15.8919C6.06822 16.6811 4.94011 17.2664 3.72948 17.6127C2.51884 17.959 1.25047 18.0594 0 17.9077C2.16269 19.3261 4.69716 20.0806 7.28784 20.0771C16.0333 20.0771 20.8017 12.6858 20.8017 6.28321V5.65927C21.7284 4.97773 22.5296 4.12341 23.1667 3.1539V3.1539Z" fill="#FF9B10"/>
</svg>
