<svg width="24" height="21" viewBox="0 0 24 21" fill="none" xmlns="http://www.w3.org/2000/svg">
<path d="M23.1667 3.16855C22.3011 3.56253 21.3798 3.82154 20.4349 3.93648C21.4372 3.32213 22.1814 2.36718 22.5296 1.24872C21.6126 1.80547 20.599 2.20864 19.5083 2.41982C19.0681 1.93852 18.5315 1.5541 17.9331 1.29125C17.3346 1.0284 16.6875 0.892938 16.0333 0.893557C15.3055 0.900956 14.5888 1.07227 13.9372 1.39464C13.2855 1.71701 12.7158 2.18204 12.2708 2.7548C11.8258 3.32757 11.5172 3.99316 11.368 4.70158C11.2188 5.41001 11.2331 6.14283 11.4096 6.84501C9.50794 6.74177 7.65033 6.23627 5.96079 5.36226C4.27125 4.48825 2.78866 3.26585 1.61201 1.77668C0.998183 2.84456 0.809335 4.10252 1.08277 5.30212C1.3562 6.50173 2.07203 7.55576 3.08889 8.25608C2.33177 8.22864 1.59284 8.01775 0.936319 7.64173V7.70893C0.936319 10.0511 2.57729 12.0093 4.74916 12.4605C4.05051 12.651 3.31688 12.6772 2.60625 12.5373C3.21437 14.4667 4.97118 15.8682 7.04653 15.9066C6.06822 16.6958 4.94011 17.281 3.72948 17.6273C2.51884 17.9737 1.25047 18.074 0 17.9224C2.16269 19.3408 4.69716 20.0952 7.28784 20.0918C16.0333 20.0918 20.8017 12.7005 20.8017 6.29786V5.67392C21.7284 4.99238 22.5296 4.13806 23.1667 3.16855Z" fill="#F3F6F7"/>
</svg>
