<svg width="25" height="21" viewBox="0 0 25 21" fill="none" xmlns="http://www.w3.org/2000/svg">
<path d="M24.6207 3.02208C23.7228 3.43297 22.767 3.70311 21.7868 3.82297C22.8266 3.18225 23.5986 2.1863 23.9598 1.01983C23.0085 1.60048 21.957 2.02095 20.8255 2.2412C20.3688 1.73924 19.8122 1.33832 19.1913 1.06418C18.5705 0.790051 17.8992 0.64877 17.2205 0.649416C16.4654 0.657133 15.722 0.835807 15.046 1.17201C14.3699 1.50822 13.7789 1.99322 13.3173 2.59057C12.8556 3.18792 12.5354 3.88209 12.3807 4.62093C12.2259 5.35976 12.2407 6.12405 12.4238 6.85637C10.451 6.7487 8.52394 6.2215 6.77119 5.30997C5.01844 4.39844 3.48039 3.12356 2.25972 1.57045C1.62293 2.68418 1.42702 3.99614 1.71067 5.24725C1.99433 6.49835 2.73694 7.59764 3.79185 8.32802C3.0064 8.2994 2.23983 8.07946 1.55875 7.68731V7.75738C1.55875 10.2001 3.26111 12.2424 5.51423 12.7129C4.78944 12.9116 4.02837 12.939 3.29115 12.793C3.92203 14.8053 5.74455 16.2669 7.89754 16.307C6.88263 17.1301 5.71232 17.7404 4.4564 18.1016C3.20047 18.4628 1.88465 18.5675 0.587402 18.4093C2.831 19.8886 5.46029 20.6755 8.14789 20.6719C17.2205 20.6719 22.1673 12.9632 22.1673 6.28573V5.635C23.1287 4.92421 23.9598 4.03321 24.6207 3.02208Z" fill="#1E2C29"/>
</svg>
